<!--?xml version="1.0" standalone="no"?-->
              <svg id="sw-js-blob-svg" viewBox="0 0 100 100" xmlns="http://www.w3.org/2000/svg" version="1.1">
                    <defs> 
                        <linearGradient id="sw-gradient" x1="0" x2="1" y1="1" y2="0">
                            <stop id="stop1" stop-color="rgba(109, 114, 117, 1)" offset="0%"></stop>
                            <stop id="stop2" stop-color="rgba(109, 114, 117, 1)" offset="100%"></stop>
                        </linearGradient>
                    </defs>
                <path fill="none" d="M14.2,-20.7C18.6,-16.3,22.6,-12.5,23.9,-7.9C25.3,-3.3,23.9,2,24.2,9.9C24.4,17.8,26.3,28.3,22.5,31C18.8,33.7,9.4,28.8,2.1,25.9C-5.1,22.9,-10.3,22.1,-17.6,20.5C-24.9,18.9,-34.4,16.6,-39.5,10.6C-44.5,4.6,-45.1,-5.1,-41.7,-12.9C-38.3,-20.6,-30.8,-26.3,-23.2,-29.8C-15.5,-33.2,-7.8,-34.4,-1.5,-32.4C4.9,-30.4,9.7,-25.2,14.2,-20.7Z" width="100%" height="100%" transform="translate(50 50)" stroke-width="1" style="transition: all 0.3s ease 0s;" stroke="url(#sw-gradient)"></path>
              </svg>