<!--?xml version="1.0" standalone="no"?-->
              <svg id="sw-js-blob-svg" viewBox="0 0 100 100" xmlns="http://www.w3.org/2000/svg" version="1.1">
                    <defs> 
                        <linearGradient id="sw-gradient" x1="0" x2="1" y1="1" y2="0">
                            <stop id="stop1" stop-color="rgba(109, 114, 117, 1)" offset="0%"></stop>
                            <stop id="stop2" stop-color="rgba(109, 114, 117, 1)" offset="100%"></stop>
                        </linearGradient>
                    </defs>
                <path fill="none" d="M18,-30.7C22.8,-28.4,25.9,-22.5,26.7,-16.8C27.6,-11.1,26.2,-5.6,27.4,0.7C28.6,6.9,32.3,13.9,32,20.5C31.6,27.1,27.3,33.4,21.3,36C15.3,38.7,7.6,37.7,-0.1,37.8C-7.8,37.9,-15.6,39.2,-22.7,37.2C-29.9,35.3,-36.4,30,-36,23.3C-35.6,16.5,-28.3,8.3,-26.2,1.2C-24,-5.8,-27,-11.5,-25.1,-14.4C-23.3,-17.3,-16.6,-17.3,-11.6,-19.5C-6.7,-21.7,-3.3,-26.1,1.6,-29C6.6,-31.8,13.2,-33,18,-30.7Z" width="100%" height="100%" transform="translate(50 50)" stroke-width="1" style="transition: all 0.3s ease 0s;" stroke="url(#sw-gradient)"></path>
              </svg>