<!--?xml version="1.0" standalone="no"?-->
              <svg id="sw-js-blob-svg" viewBox="0 0 100 100" xmlns="http://www.w3.org/2000/svg" version="1.1">
                    <defs> 
                        <linearGradient id="sw-gradient" x1="0" x2="1" y1="1" y2="0">
                            <stop id="stop1" stop-color="rgba(109, 114, 117, 1)" offset="0%"></stop>
                            <stop id="stop2" stop-color="rgba(109, 114, 117, 1)" offset="100%"></stop>
                        </linearGradient>
                    </defs>
                <path fill="none" d="M23.1,-31.8C30.7,-26.3,38.3,-20.6,41.5,-12.9C44.7,-5.3,43.6,4.2,40.4,12.9C37.2,21.5,32,29.2,25,32.6C17.9,36,8.9,35,0.5,34.4C-8,33.8,-16.1,33.5,-21.1,29.4C-26.1,25.4,-28,17.6,-31.9,9.5C-35.8,1.4,-41.6,-7,-39.9,-13.2C-38.2,-19.3,-29,-23.3,-21.1,-28.7C-13.2,-34.1,-6.6,-40.9,0.6,-41.7C7.7,-42.5,15.5,-37.3,23.1,-31.8Z" width="100%" height="100%" transform="translate(50 50)" stroke-width="1" style="transition: all 0.3s ease 0s;" stroke="url(#sw-gradient)"></path>
              </svg>